<svg xmlns="http://www.w3.org/2000/svg" xmlns:xlink="http://www.w3.org/1999/xlink" width="1080" zoomAndPan="magnify" viewBox="0 0 810 809.999993" height="1080" preserveAspectRatio="xMidYMid meet" version="1.0"><defs><g/><clipPath id="5549fc0a83"><path d="M 612.671875 292.753906 L 667.085938 292.753906 L 667.085938 363.773438 L 612.671875 363.773438 Z M 612.671875 292.753906 " clip-rule="nonzero"/></clipPath></defs><rect x="-81" width="972" fill="#ffffff" y="-80.999999" height="971.999992" fill-opacity="1"/><rect x="-81" width="972" fill="#ffffff" y="-80.999999" height="971.999992" fill-opacity="1"/><rect x="-81" width="972" fill="#ffffff" y="-80.999999" height="971.999992" fill-opacity="1"/><g clip-path="url(#5549fc0a83)"><path fill="#df7373" d="M 650.761719 328.265625 L 667.085938 328.265625 L 639.878906 292.78125 L 612.671875 328.265625 L 628.996094 328.265625 L 628.996094 363.746094 L 650.761719 363.746094 Z M 650.761719 328.265625 " fill-opacity="1" fill-rule="nonzero"/></g><g fill="#df7373" fill-opacity="1"><g transform="translate(49.514933, 450.867508)"><g><path d="M 51.328125 -49.875 L 51.328125 -68.1875 L 93.265625 -68.1875 L 93.265625 -5.328125 C 87.859375 -2.796875 82.207031 -0.929688 76.3125 0.265625 C 70.414062 1.472656 64.007812 2.078125 57.09375 2.078125 C 48.914062 2.078125 41.5625 0.816406 35.03125 -1.703125 C 28.507812 -4.234375 22.960938 -7.992188 18.390625 -12.984375 C 13.828125 -17.972656 10.328125 -24.164062 7.890625 -31.5625 C 5.453125 -38.96875 4.234375 -47.539062 4.234375 -57.28125 C 4.234375 -67.082031 5.507812 -75.859375 8.0625 -83.609375 C 10.625 -91.367188 14.351562 -97.941406 19.25 -103.328125 C 24.15625 -108.710938 30.171875 -112.816406 37.296875 -115.640625 C 44.421875 -118.460938 52.554688 -119.875 61.703125 -119.875 C 67.109375 -119.875 72.378906 -119.40625 77.515625 -118.46875 C 82.660156 -117.539062 87.789062 -116.296875 92.90625 -114.734375 L 92.90625 -92.8125 C 88.457031 -94.914062 83.539062 -96.644531 78.15625 -98 C 72.78125 -99.351562 67.351562 -100.03125 61.875 -100.03125 C 56.34375 -100.03125 51.457031 -99.066406 47.21875 -97.140625 C 42.976562 -95.222656 39.429688 -92.488281 36.578125 -88.9375 C 33.722656 -85.394531 31.554688 -81.035156 30.078125 -75.859375 C 28.609375 -70.691406 27.875 -64.859375 27.875 -58.359375 C 27.875 -52.109375 28.441406 -46.472656 29.578125 -41.453125 C 30.722656 -36.429688 32.570312 -32.160156 35.125 -28.640625 C 37.6875 -25.117188 40.976562 -22.425781 45 -20.5625 C 49.03125 -18.695312 53.9375 -17.765625 59.71875 -17.765625 C 61.09375 -17.765625 62.289062 -17.8125 63.3125 -17.90625 C 64.34375 -18 65.304688 -18.132812 66.203125 -18.3125 C 67.109375 -18.488281 67.96875 -18.695312 68.78125 -18.9375 C 69.59375 -19.175781 70.445312 -19.445312 71.34375 -19.75 L 71.34375 -49.875 Z M 51.328125 -49.875 "/></g></g></g><g fill="#df7373" fill-opacity="1"><g transform="translate(151.081214, 450.867508)"><g><path d="M 66.484375 -116.71875 C 66.484375 -114.738281 66.117188 -112.875 65.390625 -111.125 C 64.671875 -109.382812 63.664062 -107.867188 62.375 -106.578125 C 61.082031 -105.285156 59.5625 -104.257812 57.8125 -103.5 C 56.070312 -102.75 54.179688 -102.375 52.140625 -102.375 C 50.085938 -102.375 48.175781 -102.75 46.40625 -103.5 C 44.632812 -104.257812 43.101562 -105.285156 41.8125 -106.578125 C 40.519531 -107.867188 39.507812 -109.382812 38.78125 -111.125 C 38.0625 -112.875 37.703125 -114.738281 37.703125 -116.71875 C 37.703125 -118.707031 38.0625 -120.570312 38.78125 -122.3125 C 39.507812 -124.0625 40.519531 -125.597656 41.8125 -126.921875 C 43.101562 -128.242188 44.632812 -129.28125 46.40625 -130.03125 C 48.175781 -130.78125 50.085938 -131.15625 52.140625 -131.15625 C 54.179688 -131.15625 56.070312 -130.78125 57.8125 -130.03125 C 59.5625 -129.28125 61.082031 -128.242188 62.375 -126.921875 C 63.664062 -125.597656 64.671875 -124.0625 65.390625 -122.3125 C 66.117188 -120.570312 66.484375 -118.707031 66.484375 -116.71875 Z M 42.125 -74.5 L 16.234375 -74.5 L 16.234375 -91.640625 L 64.671875 -91.640625 L 64.671875 -17.140625 L 91.109375 -17.140625 L 91.109375 0 L 13.078125 0 L 13.078125 -17.140625 L 42.125 -17.140625 Z M 42.125 -74.5 "/></g></g></g><g fill="#df7373" fill-opacity="1"><g transform="translate(252.647494, 450.867508)"><g><path d="M 88.125 -0.90625 C 84.15625 0 80.15625 0.722656 76.125 1.265625 C 72.101562 1.804688 68.285156 2.078125 64.671875 2.078125 C 58.660156 2.078125 53.472656 1.441406 49.109375 0.171875 C 44.753906 -1.085938 41.144531 -3.007812 38.28125 -5.59375 C 35.425781 -8.175781 33.320312 -11.46875 31.96875 -15.46875 C 30.625 -19.46875 29.953125 -24.234375 29.953125 -29.765625 L 29.953125 -74.5 L 5.328125 -74.5 L 5.328125 -91.640625 L 29.953125 -91.640625 L 29.953125 -115.09375 L 52.5 -120.96875 L 52.5 -91.640625 L 88.125 -91.640625 L 88.125 -74.5 L 52.5 -74.5 L 52.5 -31.390625 C 52.5 -26.160156 53.703125 -22.207031 56.109375 -19.53125 C 58.515625 -16.851562 62.539062 -15.515625 68.1875 -15.515625 C 71.800781 -15.515625 75.320312 -15.8125 78.75 -16.40625 C 82.175781 -17.007812 85.300781 -17.703125 88.125 -18.484375 Z M 88.125 -0.90625 "/></g></g></g><g fill="#df7373" fill-opacity="1"><g transform="translate(354.213789, 450.867508)"><g><path d="M 77.9375 0 L 75.765625 -66.65625 L 74.953125 -93.265625 L 69.28125 -75.234375 L 56.203125 -35.09375 L 42.3125 -35.09375 L 30.484375 -75.234375 L 25.53125 -93.265625 L 24.890625 -67.203125 L 22.90625 0 L 4.0625 0 L 9.828125 -117.890625 L 34.90625 -117.890625 L 45.28125 -84.421875 L 50.25 -65.578125 L 55.203125 -83.34375 L 66.125 -117.890625 L 91.640625 -117.890625 L 97.515625 0 Z M 77.9375 0 "/></g></g></g><g fill="#df7373" fill-opacity="1"><g transform="translate(455.780055, 450.867508)"><g><path d="M 92.375 -52.859375 C 92.375 -51.359375 92.328125 -49.40625 92.234375 -47 C 92.140625 -44.59375 92.003906 -42.335938 91.828125 -40.234375 L 31.578125 -40.234375 C 31.578125 -36.203125 32.191406 -32.648438 33.421875 -29.578125 C 34.648438 -26.515625 36.390625 -23.945312 38.640625 -21.875 C 40.898438 -19.800781 43.609375 -18.222656 46.765625 -17.140625 C 49.921875 -16.054688 53.425781 -15.515625 57.28125 -15.515625 C 61.726562 -15.515625 66.492188 -15.859375 71.578125 -16.546875 C 76.660156 -17.242188 81.9375 -18.375 87.40625 -19.9375 L 87.40625 -2.4375 C 85.0625 -1.769531 82.503906 -1.164062 79.734375 -0.625 C 76.972656 -0.0820312 74.148438 0.394531 71.265625 0.8125 C 68.378906 1.226562 65.460938 1.539062 62.515625 1.75 C 59.566406 1.96875 56.707031 2.078125 53.9375 2.078125 C 46.96875 2.078125 40.710938 1.085938 35.171875 -0.890625 C 29.640625 -2.878906 24.945312 -5.8125 21.09375 -9.6875 C 17.25 -13.570312 14.304688 -18.367188 12.265625 -24.078125 C 10.222656 -29.796875 9.203125 -36.410156 9.203125 -43.921875 C 9.203125 -51.378906 10.222656 -58.160156 12.265625 -64.265625 C 14.304688 -70.367188 17.191406 -75.597656 20.921875 -79.953125 C 24.648438 -84.316406 29.175781 -87.6875 34.5 -90.0625 C 39.820312 -92.4375 45.757812 -93.625 52.3125 -93.625 C 58.8125 -93.625 64.554688 -92.617188 69.546875 -90.609375 C 74.535156 -88.597656 78.710938 -85.785156 82.078125 -82.171875 C 85.453125 -78.566406 88.007812 -74.265625 89.75 -69.265625 C 91.5 -64.273438 92.375 -58.804688 92.375 -52.859375 Z M 70 -56.015625 C 70.0625 -59.617188 69.609375 -62.757812 68.640625 -65.4375 C 67.679688 -68.113281 66.375 -70.320312 64.71875 -72.0625 C 63.0625 -73.8125 61.132812 -75.109375 58.9375 -75.953125 C 56.75 -76.796875 54.390625 -77.21875 51.859375 -77.21875 C 46.328125 -77.21875 41.785156 -75.367188 38.234375 -71.671875 C 34.691406 -67.972656 32.59375 -62.753906 31.9375 -56.015625 Z M 70 -56.015625 "/></g></g></g><g fill="#df7373" fill-opacity="1"><g transform="translate(557.346322, 450.867508)"><g><path d="M 93.71875 -43.390625 C 93.71875 -35.867188 92.707031 -29.265625 90.6875 -23.578125 C 88.675781 -17.898438 85.789062 -13.164062 82.03125 -9.375 C 78.28125 -5.59375 73.695312 -2.738281 68.28125 -0.8125 C 62.875 1.113281 56.800781 2.078125 50.0625 2.078125 C 42.488281 2.078125 35.992188 1.113281 30.578125 -0.8125 C 25.160156 -2.738281 20.769531 -5.503906 17.40625 -9.109375 C 14.039062 -12.710938 11.601562 -17.097656 10.09375 -22.265625 C 8.59375 -27.441406 7.84375 -33.25 7.84375 -39.6875 L 7.84375 -117.890625 L 30.03125 -117.890625 L 30.03125 -41.046875 C 30.03125 -37.078125 30.375 -33.554688 31.0625 -30.484375 C 31.757812 -27.421875 32.960938 -24.820312 34.671875 -22.6875 C 36.390625 -20.550781 38.539062 -18.941406 41.125 -17.859375 C 43.71875 -16.773438 46.96875 -16.234375 50.875 -16.234375 C 54.539062 -16.234375 57.632812 -16.695312 60.15625 -17.625 C 62.6875 -18.5625 64.789062 -20.066406 66.46875 -22.140625 C 68.15625 -24.210938 69.421875 -26.875 70.265625 -30.125 C 71.109375 -33.375 71.53125 -37.3125 71.53125 -41.9375 L 71.53125 -117.890625 L 93.71875 -117.890625 Z M 93.71875 -43.390625 "/></g></g></g><g fill="#df7373" fill-opacity="1"><g transform="translate(658.912589, 450.867508)"><g><path d="M 94.984375 -47.453125 C 94.984375 -39.023438 93.796875 -31.742188 91.421875 -25.609375 C 89.046875 -19.484375 85.738281 -14.390625 81.5 -10.328125 C 77.257812 -6.265625 72.25 -3.253906 66.46875 -1.296875 C 60.695312 0.648438 54.414062 1.625 47.625 1.625 C 45.34375 1.625 43.054688 1.472656 40.765625 1.171875 C 38.484375 0.867188 36.410156 0.476562 34.546875 0 L 34.546875 35.8125 L 12.53125 35.8125 L 12.53125 -91.640625 L 31.578125 -91.640625 L 32.109375 -78.109375 C 33.972656 -80.460938 35.910156 -82.597656 37.921875 -84.515625 C 39.941406 -86.441406 42.125 -88.082031 44.46875 -89.4375 C 46.8125 -90.789062 49.335938 -91.828125 52.046875 -92.546875 C 54.753906 -93.265625 57.789062 -93.625 61.15625 -93.625 C 66.570312 -93.625 71.382812 -92.539062 75.59375 -90.375 C 79.800781 -88.21875 83.332031 -85.140625 86.1875 -81.140625 C 89.039062 -77.140625 91.21875 -72.296875 92.71875 -66.609375 C 94.226562 -60.929688 94.984375 -54.546875 94.984375 -47.453125 Z M 71.890625 -46.546875 C 71.890625 -51.597656 71.523438 -55.894531 70.796875 -59.4375 C 70.078125 -62.988281 69.039062 -65.90625 67.6875 -68.1875 C 66.34375 -70.476562 64.691406 -72.148438 62.734375 -73.203125 C 60.773438 -74.253906 58.535156 -74.78125 56.015625 -74.78125 C 52.285156 -74.78125 48.722656 -73.273438 45.328125 -70.265625 C 41.929688 -67.253906 38.335938 -63.164062 34.546875 -58 L 34.546875 -17.953125 C 36.285156 -17.285156 38.429688 -16.738281 40.984375 -16.3125 C 43.546875 -15.894531 46.148438 -15.6875 48.796875 -15.6875 C 52.285156 -15.6875 55.457031 -16.410156 58.3125 -17.859375 C 61.164062 -19.304688 63.597656 -21.351562 65.609375 -24 C 67.628906 -26.644531 69.179688 -29.875 70.265625 -33.6875 C 71.347656 -37.507812 71.890625 -41.796875 71.890625 -46.546875 Z M 71.890625 -46.546875 "/></g></g></g></svg>